<?xml version="1.0" encoding="UTF-8"?>
<svg xmlns="http://www.w3.org/2000/svg" xmlns:xlink="http://www.w3.org/1999/xlink" width="120px" height="40px" viewBox="0 0 120 40" version="1.1">
<g id="surface1">
<path style=" stroke:none;fill-rule:nonzero;fill:rgb(65.098039%,65.098039%,65.098039%);fill-opacity:1;" d="M 110.136719 0 L 9.535156 0 C 9.167969 0 8.804688 0 8.441406 0.00390625 C 8.132812 0.00390625 7.832031 0.0117188 7.519531 0.015625 C 6.847656 0.0234375 6.179688 0.0820312 5.515625 0.191406 C 4.855469 0.304688 4.214844 0.515625 3.617188 0.820312 C 3.019531 1.125 2.472656 1.523438 1.996094 1.996094 C 1.519531 2.46875 1.121094 3.019531 0.820312 3.617188 C 0.515625 4.21875 0.304688 4.859375 0.195312 5.519531 C 0.0820312 6.183594 0.0234375 6.851562 0.015625 7.523438 C 0.0078125 7.832031 0.00390625 8.136719 0 8.445312 L 0 31.558594 C 0.00390625 31.867188 0.0078125 32.167969 0.015625 32.480469 C 0.0234375 33.152344 0.0820312 33.820312 0.195312 34.480469 C 0.304688 35.144531 0.515625 35.789062 0.820312 36.386719 C 1.121094 36.984375 1.519531 37.53125 1.996094 38 C 2.46875 38.476562 3.015625 38.875 3.617188 39.179688 C 4.214844 39.484375 4.855469 39.695312 5.515625 39.808594 C 6.179688 39.917969 6.847656 39.976562 7.519531 39.988281 C 7.832031 39.992188 8.132812 39.996094 8.441406 39.996094 C 8.804688 40 9.167969 40 9.535156 40 L 110.136719 40 C 110.496094 40 110.859375 40 111.21875 39.996094 C 111.523438 39.996094 111.835938 39.992188 112.140625 39.988281 C 112.8125 39.980469 113.480469 39.917969 114.140625 39.808594 C 114.804688 39.695312 115.449219 39.484375 116.050781 39.179688 C 116.648438 38.875 117.195312 38.476562 117.667969 38 C 118.140625 37.527344 118.539062 36.984375 118.847656 36.386719 C 119.148438 35.785156 119.359375 35.144531 119.464844 34.480469 C 119.578125 33.820312 119.640625 33.152344 119.652344 32.480469 C 119.65625 32.167969 119.65625 31.867188 119.65625 31.558594 C 119.664062 31.195312 119.664062 30.835938 119.664062 30.464844 L 119.664062 9.535156 C 119.664062 9.167969 119.664062 8.804688 119.65625 8.445312 C 119.65625 8.136719 119.65625 7.832031 119.652344 7.523438 C 119.640625 6.851562 119.578125 6.183594 119.464844 5.519531 C 119.359375 4.859375 119.148438 4.21875 118.847656 3.617188 C 118.230469 2.414062 117.25 1.4375 116.050781 0.816406 C 115.449219 0.515625 114.804688 0.304688 114.140625 0.191406 C 113.480469 0.0820312 112.8125 0.0234375 112.140625 0.015625 C 111.835938 0.0078125 111.523438 0.00390625 111.21875 0 C 110.859375 0 110.496094 0 110.136719 0 Z M 110.136719 0 "/>
<path style=" stroke:none;fill-rule:nonzero;fill:rgb(0%,0%,0%);fill-opacity:1;" d="M 8.445312 39.125 C 8.140625 39.125 7.84375 39.121094 7.539062 39.113281 C 6.914062 39.105469 6.289062 39.050781 5.671875 38.953125 C 5.09375 38.851562 4.535156 38.667969 4.015625 38.402344 C 3.496094 38.140625 3.027344 37.796875 2.617188 37.386719 C 2.203125 36.980469 1.859375 36.507812 1.597656 35.988281 C 1.332031 35.46875 1.148438 34.910156 1.054688 34.332031 C 0.953125 33.714844 0.894531 33.085938 0.886719 32.457031 C 0.882812 32.246094 0.871094 31.542969 0.871094 31.542969 L 0.871094 8.445312 C 0.871094 8.445312 0.882812 7.753906 0.886719 7.550781 C 0.894531 6.921875 0.949219 6.296875 1.054688 5.675781 C 1.148438 5.097656 1.332031 4.539062 1.597656 4.015625 C 1.859375 3.496094 2.199219 3.027344 2.613281 2.617188 C 3.023438 2.207031 3.496094 1.859375 4.015625 1.59375 C 4.535156 1.332031 5.09375 1.148438 5.667969 1.050781 C 6.289062 0.949219 6.914062 0.894531 7.542969 0.886719 L 8.445312 0.875 L 111.214844 0.875 L 112.128906 0.886719 C 112.75 0.894531 113.371094 0.949219 113.984375 1.050781 C 114.566406 1.148438 115.128906 1.332031 115.65625 1.597656 C 116.695312 2.132812 117.539062 2.980469 118.070312 4.019531 C 118.332031 4.539062 118.511719 5.09375 118.605469 5.667969 C 118.710938 6.289062 118.769531 6.921875 118.78125 7.554688 C 118.78125 7.835938 118.78125 8.140625 118.78125 8.445312 C 118.792969 8.820312 118.792969 9.175781 118.792969 9.535156 L 118.792969 30.464844 C 118.792969 30.828125 118.792969 31.183594 118.78125 31.539062 C 118.78125 31.863281 118.78125 32.164062 118.777344 32.46875 C 118.769531 33.089844 118.710938 33.710938 118.609375 34.324219 C 118.515625 34.902344 118.332031 35.46875 118.070312 35.992188 C 117.804688 36.503906 117.460938 36.972656 117.054688 37.378906 C 116.644531 37.792969 116.171875 38.136719 115.652344 38.402344 C 115.128906 38.667969 114.566406 38.851562 113.984375 38.953125 C 113.367188 39.050781 112.742188 39.105469 112.117188 39.113281 C 111.824219 39.121094 111.515625 39.125 111.21875 39.125 L 110.136719 39.128906 Z M 8.445312 39.125 "/>
<path style=" stroke:none;fill-rule:nonzero;fill:rgb(100%,100%,100%);fill-opacity:1;" d="M 24.769531 20.300781 C 24.789062 18.605469 25.679688 17.039062 27.125 16.148438 C 26.210938 14.839844 24.730469 14.039062 23.132812 13.992188 C 21.453125 13.816406 19.828125 14.996094 18.972656 14.996094 C 18.097656 14.996094 16.78125 14.007812 15.363281 14.039062 C 13.496094 14.097656 11.796875 15.132812 10.890625 16.765625 C 8.957031 20.113281 10.398438 25.035156 12.25 27.742188 C 13.179688 29.066406 14.261719 30.546875 15.679688 30.496094 C 17.066406 30.4375 17.582031 29.609375 19.257812 29.609375 C 20.917969 29.609375 21.402344 30.496094 22.847656 30.460938 C 24.335938 30.4375 25.273438 29.128906 26.167969 27.792969 C 26.835938 26.847656 27.347656 25.804688 27.6875 24.699219 C 25.921875 23.953125 24.769531 22.21875 24.769531 20.300781 Z M 24.769531 20.300781 "/>
<path style=" stroke:none;fill-rule:nonzero;fill:rgb(100%,100%,100%);fill-opacity:1;" d="M 22.039062 12.210938 C 22.847656 11.238281 23.25 9.984375 23.152344 8.71875 C 21.910156 8.851562 20.765625 9.441406 19.945312 10.378906 C 19.132812 11.304688 18.71875 12.511719 18.800781 13.742188 C 20.058594 13.753906 21.25 13.191406 22.039062 12.210938 Z M 22.039062 12.210938 "/>
<path style=" stroke:none;fill-rule:nonzero;fill:rgb(100%,100%,100%);fill-opacity:1;" d="M 42.300781 27.140625 L 37.570312 27.140625 L 36.433594 30.496094 L 34.425781 30.496094 L 38.910156 18.078125 L 40.992188 18.078125 L 45.476562 30.496094 L 43.4375 30.496094 Z M 38.058594 25.589844 L 41.8125 25.589844 L 39.960938 20.144531 L 39.910156 20.144531 Z M 38.058594 25.589844 "/>
<path style=" stroke:none;fill-rule:nonzero;fill:rgb(100%,100%,100%);fill-opacity:1;" d="M 55.160156 25.96875 C 55.160156 28.785156 53.652344 30.589844 51.382812 30.589844 C 50.207031 30.652344 49.101562 30.035156 48.53125 29.007812 L 48.488281 29.007812 L 48.488281 33.492188 L 46.632812 33.492188 L 46.632812 21.441406 L 48.429688 21.441406 L 48.429688 22.949219 L 48.464844 22.949219 C 49.058594 21.925781 50.164062 21.308594 51.347656 21.347656 C 53.644531 21.347656 55.160156 23.164062 55.160156 25.96875 Z M 53.25 25.96875 C 53.25 24.136719 52.300781 22.929688 50.855469 22.929688 C 49.4375 22.929688 48.480469 24.164062 48.480469 25.96875 C 48.480469 27.792969 49.4375 29.015625 50.855469 29.015625 C 52.300781 29.015625 53.25 27.820312 53.25 25.96875 Z M 53.25 25.96875 "/>
<path style=" stroke:none;fill-rule:nonzero;fill:rgb(100%,100%,100%);fill-opacity:1;" d="M 65.125 25.96875 C 65.125 28.785156 63.617188 30.589844 61.347656 30.589844 C 60.171875 30.652344 59.066406 30.035156 58.496094 29.007812 L 58.453125 29.007812 L 58.453125 33.492188 L 56.597656 33.492188 L 56.597656 21.441406 L 58.394531 21.441406 L 58.394531 22.949219 L 58.429688 22.949219 C 59.023438 21.925781 60.128906 21.308594 61.3125 21.347656 C 63.609375 21.347656 65.125 23.164062 65.125 25.96875 Z M 63.214844 25.96875 C 63.214844 24.136719 62.265625 22.929688 60.820312 22.929688 C 59.402344 22.929688 58.445312 24.164062 58.445312 25.96875 C 58.445312 27.792969 59.402344 29.015625 60.820312 29.015625 C 62.265625 29.015625 63.214844 27.820312 63.214844 25.96875 Z M 63.214844 25.96875 "/>
<path style=" stroke:none;fill-rule:nonzero;fill:rgb(100%,100%,100%);fill-opacity:1;" d="M 71.710938 27.035156 C 71.847656 28.269531 73.042969 29.074219 74.679688 29.074219 C 76.246094 29.074219 77.371094 28.265625 77.371094 27.15625 C 77.371094 26.191406 76.691406 25.617188 75.082031 25.21875 L 73.472656 24.832031 C 71.195312 24.28125 70.136719 23.214844 70.136719 21.484375 C 70.136719 19.34375 72.003906 17.871094 74.652344 17.871094 C 77.277344 17.871094 79.078125 19.34375 79.136719 21.484375 L 77.261719 21.484375 C 77.148438 20.246094 76.125 19.496094 74.628906 19.496094 C 73.128906 19.496094 72.105469 20.253906 72.105469 21.355469 C 72.105469 22.234375 72.761719 22.75 74.359375 23.144531 L 75.730469 23.480469 C 78.277344 24.085938 79.335938 25.109375 79.335938 26.925781 C 79.335938 29.246094 77.484375 30.703125 74.542969 30.703125 C 71.789062 30.703125 69.929688 29.28125 69.808594 27.035156 Z M 71.710938 27.035156 "/>
<path style=" stroke:none;fill-rule:nonzero;fill:rgb(100%,100%,100%);fill-opacity:1;" d="M 83.347656 19.300781 L 83.347656 21.441406 L 85.066406 21.441406 L 85.066406 22.914062 L 83.347656 22.914062 L 83.347656 27.90625 C 83.347656 28.679688 83.691406 29.042969 84.449219 29.042969 C 84.652344 29.039062 84.855469 29.023438 85.058594 29 L 85.058594 30.460938 C 84.71875 30.527344 84.371094 30.554688 84.027344 30.546875 C 82.195312 30.546875 81.480469 29.859375 81.480469 28.101562 L 81.480469 22.914062 L 80.164062 22.914062 L 80.164062 21.441406 L 81.480469 21.441406 L 81.480469 19.300781 Z M 83.347656 19.300781 "/>
<path style=" stroke:none;fill-rule:nonzero;fill:rgb(100%,100%,100%);fill-opacity:1;" d="M 86.066406 25.96875 C 86.066406 23.121094 87.742188 21.332031 90.359375 21.332031 C 92.984375 21.332031 94.652344 23.121094 94.652344 25.96875 C 94.652344 28.828125 92.992188 30.609375 90.359375 30.609375 C 87.726562 30.609375 86.066406 28.824219 86.066406 25.96875 Z M 92.761719 25.96875 C 92.761719 24.015625 91.863281 22.863281 90.359375 22.863281 C 88.851562 22.863281 87.957031 24.023438 87.957031 25.96875 C 87.957031 27.929688 88.851562 29.078125 90.359375 29.078125 C 91.863281 29.078125 92.761719 27.929688 92.761719 25.96875 Z M 92.761719 25.96875 "/>
<path style=" stroke:none;fill-rule:nonzero;fill:rgb(100%,100%,100%);fill-opacity:1;" d="M 96.1875 21.441406 L 97.957031 21.441406 L 97.957031 22.984375 L 98 22.984375 C 98.25 21.992188 99.15625 21.308594 100.179688 21.347656 C 100.394531 21.347656 100.605469 21.371094 100.816406 21.417969 L 100.816406 23.15625 C 100.546875 23.074219 100.261719 23.035156 99.980469 23.042969 C 99.433594 23.019531 98.90625 23.238281 98.535156 23.640625 C 98.160156 24.039062 97.984375 24.582031 98.042969 25.125 L 98.042969 30.496094 L 96.1875 30.496094 Z M 96.1875 21.441406 "/>
<path style=" stroke:none;fill-rule:nonzero;fill:rgb(100%,100%,100%);fill-opacity:1;" d="M 109.382812 27.835938 C 109.132812 29.480469 107.535156 30.609375 105.484375 30.609375 C 102.851562 30.609375 101.21875 28.84375 101.21875 26.011719 C 101.21875 23.171875 102.859375 21.332031 105.40625 21.332031 C 107.914062 21.332031 109.488281 23.050781 109.488281 25.796875 L 109.488281 26.433594 L 103.09375 26.433594 L 103.09375 26.546875 C 103.035156 27.21875 103.265625 27.886719 103.730469 28.378906 C 104.199219 28.867188 104.851562 29.136719 105.527344 29.109375 C 106.429688 29.195312 107.28125 28.675781 107.621094 27.835938 Z M 103.101562 25.132812 L 107.628906 25.132812 C 107.664062 24.527344 107.441406 23.9375 107.019531 23.5 C 106.597656 23.0625 106.015625 22.824219 105.40625 22.835938 C 104.796875 22.832031 104.210938 23.074219 103.777344 23.503906 C 103.34375 23.9375 103.101562 24.523438 103.101562 25.136719 Z M 103.101562 25.132812 "/>
<path style=" stroke:none;fill-rule:nonzero;fill:rgb(100%,100%,100%);fill-opacity:1;" d="M 35.671875 14.699219 L 35.671875 8.730469 L 38.070312 8.730469 C 39.191406 8.730469 39.863281 9.300781 39.863281 10.21875 C 39.863281 10.839844 39.425781 11.378906 38.820312 11.5 L 38.820312 11.570312 C 39.582031 11.609375 40.175781 12.242188 40.164062 13.007812 C 40.164062 14.058594 39.398438 14.699219 38.125 14.699219 Z M 36.597656 11.257812 L 37.699219 11.257812 C 38.515625 11.257812 38.941406 10.957031 38.941406 10.390625 C 38.941406 9.839844 38.542969 9.515625 37.855469 9.515625 L 36.597656 9.515625 Z M 37.9375 13.914062 C 38.773438 13.914062 39.214844 13.574219 39.214844 12.941406 C 39.214844 12.316406 38.757812 11.988281 37.882812 11.988281 L 36.597656 11.988281 L 36.597656 13.914062 Z M 37.9375 13.914062 "/>
<path style=" stroke:none;fill-rule:nonzero;fill:rgb(100%,100%,100%);fill-opacity:1;" d="M 41.113281 13.425781 C 41.113281 12.613281 41.71875 12.148438 42.789062 12.082031 L 44.007812 12.011719 L 44.007812 11.621094 C 44.007812 11.144531 43.695312 10.878906 43.085938 10.878906 C 42.589844 10.878906 42.246094 11.058594 42.148438 11.378906 L 41.289062 11.378906 C 41.378906 10.605469 42.105469 10.109375 43.128906 10.109375 C 44.257812 10.109375 44.894531 10.667969 44.894531 11.621094 L 44.894531 14.699219 L 44.039062 14.699219 L 44.039062 14.066406 L 43.96875 14.066406 C 43.675781 14.527344 43.160156 14.796875 42.617188 14.773438 C 42.234375 14.8125 41.851562 14.6875 41.566406 14.429688 C 41.28125 14.175781 41.117188 13.808594 41.113281 13.425781 Z M 44.007812 13.039062 L 44.007812 12.664062 L 42.910156 12.734375 C 42.289062 12.773438 42.007812 12.984375 42.007812 13.382812 C 42.007812 13.789062 42.359375 14.023438 42.84375 14.023438 C 43.128906 14.054688 43.414062 13.964844 43.632812 13.777344 C 43.855469 13.59375 43.988281 13.328125 44.007812 13.039062 Z M 44.007812 13.039062 "/>
<path style=" stroke:none;fill-rule:nonzero;fill:rgb(100%,100%,100%);fill-opacity:1;" d="M 46.167969 8.863281 C 46.15625 8.628906 46.285156 8.40625 46.5 8.308594 C 46.714844 8.207031 46.964844 8.25 47.136719 8.410156 C 47.308594 8.570312 47.367188 8.820312 47.277344 9.042969 C 47.191406 9.261719 46.980469 9.40625 46.746094 9.40625 C 46.59375 9.414062 46.449219 9.359375 46.339844 9.257812 C 46.234375 9.15625 46.171875 9.011719 46.167969 8.863281 Z M 46.300781 10.195312 L 47.1875 10.195312 L 47.1875 14.699219 L 46.300781 14.699219 Z M 46.300781 10.195312 "/>
<path style=" stroke:none;fill-rule:nonzero;fill:rgb(100%,100%,100%);fill-opacity:1;" d="M 50.238281 13.101562 L 49.253906 14.699219 L 48.277344 14.699219 L 49.769531 12.457031 L 48.265625 10.195312 L 49.300781 10.195312 L 50.269531 11.78125 L 50.339844 11.78125 L 51.300781 10.195312 L 52.289062 10.195312 L 50.804688 12.417969 L 52.304688 14.699219 L 51.285156 14.699219 L 50.304688 13.101562 Z M 50.238281 13.101562 "/>
<path style=" stroke:none;fill-rule:nonzero;fill:rgb(100%,100%,100%);fill-opacity:1;" d="M 53.089844 13.425781 C 53.089844 12.613281 53.691406 12.148438 54.761719 12.082031 L 55.984375 12.011719 L 55.984375 11.621094 C 55.984375 11.144531 55.667969 10.878906 55.0625 10.878906 C 54.566406 10.878906 54.222656 11.058594 54.121094 11.378906 L 53.261719 11.378906 C 53.351562 10.605469 54.082031 10.109375 55.101562 10.109375 C 56.230469 10.109375 56.867188 10.667969 56.867188 11.621094 L 56.867188 14.699219 L 56.011719 14.699219 L 56.011719 14.066406 L 55.941406 14.066406 C 55.652344 14.527344 55.132812 14.796875 54.589844 14.773438 C 54.207031 14.8125 53.824219 14.6875 53.539062 14.429688 C 53.253906 14.175781 53.089844 13.808594 53.089844 13.425781 Z M 55.984375 13.039062 L 55.984375 12.664062 L 54.882812 12.734375 C 54.261719 12.773438 53.980469 12.984375 53.980469 13.382812 C 53.980469 13.789062 54.332031 14.023438 54.816406 14.023438 C 55.101562 14.054688 55.386719 13.964844 55.609375 13.777344 C 55.828125 13.59375 55.964844 13.328125 55.984375 13.039062 Z M 55.984375 13.039062 "/>
<path style=" stroke:none;fill-rule:nonzero;fill:rgb(100%,100%,100%);fill-opacity:1;" d="M 58.257812 10.195312 L 59.113281 10.195312 L 59.113281 10.886719 L 59.179688 10.886719 C 59.378906 10.394531 59.867188 10.085938 60.398438 10.121094 C 60.53125 10.117188 60.664062 10.128906 60.792969 10.15625 L 60.792969 11.035156 C 60.628906 11 60.464844 10.980469 60.296875 10.980469 C 60 10.953125 59.707031 11.054688 59.488281 11.253906 C 59.269531 11.457031 59.144531 11.742188 59.148438 12.039062 L 59.148438 14.699219 L 58.257812 14.699219 Z M 58.257812 10.195312 "/>
<path style=" stroke:none;fill-rule:nonzero;fill:rgb(100%,100%,100%);fill-opacity:1;" d="M 64.21875 10.195312 L 65.074219 10.195312 L 65.074219 10.910156 L 65.140625 10.910156 C 65.371094 10.382812 65.910156 10.0625 66.484375 10.109375 C 66.929688 10.074219 67.363281 10.246094 67.664062 10.570312 C 67.96875 10.894531 68.109375 11.34375 68.042969 11.78125 L 68.042969 14.699219 L 67.152344 14.699219 L 67.152344 12.007812 C 67.152344 11.28125 66.839844 10.921875 66.183594 10.921875 C 65.882812 10.910156 65.589844 11.027344 65.382812 11.246094 C 65.175781 11.464844 65.074219 11.765625 65.105469 12.0625 L 65.105469 14.699219 L 64.21875 14.699219 Z M 64.21875 10.195312 "/>
<path style=" stroke:none;fill-rule:nonzero;fill:rgb(100%,100%,100%);fill-opacity:1;" d="M 69.160156 13.425781 C 69.160156 12.613281 69.765625 12.148438 70.835938 12.082031 L 72.054688 12.011719 L 72.054688 11.621094 C 72.054688 11.144531 71.742188 10.878906 71.132812 10.878906 C 70.636719 10.878906 70.292969 11.058594 70.195312 11.378906 L 69.335938 11.378906 C 69.425781 10.605469 70.152344 10.109375 71.175781 10.109375 C 72.304688 10.109375 72.941406 10.667969 72.941406 11.621094 L 72.941406 14.699219 L 72.085938 14.699219 L 72.085938 14.066406 L 72.015625 14.066406 C 71.722656 14.527344 71.207031 14.796875 70.660156 14.773438 C 70.28125 14.8125 69.898438 14.6875 69.613281 14.429688 C 69.328125 14.175781 69.164062 13.808594 69.160156 13.425781 Z M 72.054688 13.039062 L 72.054688 12.664062 L 70.957031 12.734375 C 70.335938 12.773438 70.054688 12.984375 70.054688 13.382812 C 70.054688 13.789062 70.40625 14.023438 70.890625 14.023438 C 71.175781 14.054688 71.460938 13.964844 71.679688 13.777344 C 71.902344 13.59375 72.035156 13.328125 72.054688 13.039062 Z M 72.054688 13.039062 "/>
</g>
</svg>
